<mxfile host="drawio-plugin" modified="2021-10-19T16:44:06.700Z" agent="5.0 (Windows NT 6.2; Win64; x64) AppleWebKit/537.36 (KHTML, like Gecko) Chrome/89.0.4389.114 Safari/537.36" version="14.7.4" etag="Yfo2aXd3CKMjhy44BUUt" type="embed"><diagram id="OMjEp7ZkKIiIPjmKSi8p" name="Page-1"><mxGraphModel dx="889" dy="385" grid="1" gridSize="10" guides="1" tooltips="1" connect="1" arrows="1" fold="1" page="1" pageScale="1" pageWidth="850" pageHeight="1100" math="0" shadow="0"><root><mxCell id="0"/><mxCell id="1" parent="0"/><mxCell id="2" value="App&lt;br&gt;" style="whiteSpace=wrap;html=1;" parent="1" vertex="1"><mxGeometry x="350" y="50" width="80" height="40" as="geometry"/></mxCell><mxCell id="10" style="edgeStyle=orthogonalEdgeStyle;rounded=0;orthogonalLoop=1;jettySize=auto;html=1;exitX=0;exitY=0.5;exitDx=0;exitDy=0;entryX=0.5;entryY=0;entryDx=0;entryDy=0;" parent="1" source="3" target="4" edge="1"><mxGeometry relative="1" as="geometry"/></mxCell><mxCell id="11" style="edgeStyle=orthogonalEdgeStyle;rounded=0;orthogonalLoop=1;jettySize=auto;html=1;entryX=0.5;entryY=0;entryDx=0;entryDy=0;" parent="1" source="3" target="5" edge="1"><mxGeometry relative="1" as="geometry"/></mxCell><mxCell id="3" value="Login&lt;br&gt;" style="whiteSpace=wrap;html=1;" parent="1" vertex="1"><mxGeometry x="330" y="120" width="120" height="60" as="geometry"/></mxCell><mxCell id="4" value="Instructor&lt;br&gt;" style="whiteSpace=wrap;html=1;" parent="1" vertex="1"><mxGeometry x="130" y="220" width="120" height="60" as="geometry"/></mxCell><mxCell id="5" value="Client&lt;br&gt;" style="whiteSpace=wrap;html=1;" parent="1" vertex="1"><mxGeometry x="540" y="220" width="120" height="60" as="geometry"/></mxCell><mxCell id="6" value="Create Class Form&lt;br&gt;" style="whiteSpace=wrap;html=1;" parent="1" vertex="1"><mxGeometry x="130" y="300" width="120" height="60" as="geometry"/></mxCell><mxCell id="7" value="Class Page" style="whiteSpace=wrap;html=1;" parent="1" vertex="1"><mxGeometry x="540" y="360" width="120" height="60" as="geometry"/></mxCell><mxCell id="8" value="Search Bar&lt;br&gt;" style="whiteSpace=wrap;html=1;" parent="1" vertex="1"><mxGeometry x="540" y="290" width="120" height="60" as="geometry"/></mxCell><mxCell id="9" value="Registered Form&lt;br&gt;" style="whiteSpace=wrap;html=1;" parent="1" vertex="1"><mxGeometry x="130" y="380" width="120" height="60" as="geometry"/></mxCell><mxCell id="12" value="Nathan / Alan" style="text;html=1;resizable=0;autosize=1;align=center;verticalAlign=middle;points=[];fillColor=none;strokeColor=none;rounded=0;" parent="1" vertex="1"><mxGeometry x="330" y="120" width="90" height="20" as="geometry"/></mxCell><mxCell id="13" value="Philip" style="text;html=1;resizable=0;autosize=1;align=center;verticalAlign=middle;points=[];fillColor=none;strokeColor=none;rounded=0;" parent="1" vertex="1"><mxGeometry x="130" y="300" width="40" height="20" as="geometry"/></mxCell><mxCell id="14" value="John&lt;br&gt;" style="text;html=1;resizable=0;autosize=1;align=center;verticalAlign=middle;points=[];fillColor=none;strokeColor=none;rounded=0;" parent="1" vertex="1"><mxGeometry x="540" y="220" width="40" height="20" as="geometry"/></mxCell><mxCell id="17" value="Philip" style="text;html=1;strokeColor=none;fillColor=none;align=center;verticalAlign=middle;whiteSpace=wrap;rounded=0;" vertex="1" parent="1"><mxGeometry x="130" y="220" width="40" height="20" as="geometry"/></mxCell></root></mxGraphModel></diagram></mxfile>